<?xml version="1.0" encoding="UTF-8" standalone="no"?>
<svg
   xmlns:dc="http://purl.org/dc/elements/1.1/"
   xmlns:cc="http://creativecommons.org/ns#"
   xmlns:rdf="http://www.w3.org/1999/02/22-rdf-syntax-ns#"
   xmlns:svg="http://www.w3.org/2000/svg"
   xmlns="http://www.w3.org/2000/svg"
   xmlns:sodipodi="http://sodipodi.sourceforge.net/DTD/sodipodi-0.dtd"
   xmlns:inkscape="http://www.inkscape.org/namespaces/inkscape"
   width="320"
   height="64"
   viewBox="0 0 84.666669 16.933334"
   version="1.1"
   id="svg8"
   inkscape:version="1.0.1 (3bc2e813f5, 2020-09-07)"
   sodipodi:docname="readme_logo-title.svg"
   inkscape:export-filename="Z:\70-79 Web Dev\71 NSS\71.09 Write Log\logo-title\logo_vislit.png"
   inkscape:export-xdpi="192"
   inkscape:export-ydpi="192">
  <defs
     id="defs2">
    <rect
       x="2118.9346"
       y="726.47028"
       width="269.11905"
       height="103.56548"
       id="rect4207" />
    <rect
       x="2007.7288"
       y="-315.9126"
       width="66.817383"
       height="43.297665"
       id="rect3624" />
    <rect
       x="-519.33929"
       y="-244.92857"
       width="145.52084"
       height="29.860121"
       id="rect3524" />
    <rect
       x="-674.05377"
       y="-337.29416"
       width="79.111778"
       height="45.435822"
       id="rect1399" />
    <rect
       x="-460.375"
       y="-388.55954"
       width="40.82143"
       height="13.040179"
       id="rect1276" />
    <rect
       x="-590.02081"
       y="-382.13394"
       width="113.77084"
       height="15.119048"
       id="rect1212" />
    <rect
       x="-602.42554"
       y="-385.40265"
       width="103.16604"
       height="13.363477"
       id="rect1202" />
    <rect
       x="374.17734"
       y="-985.69"
       width="311.10175"
       height="202.05577"
       id="rect1158" />
    <rect
       x="-166.77618"
       y="-838.15723"
       width="99.424263"
       height="36.348656"
       id="rect1114" />
    <rect
       x="-258.18237"
       y="56.66114"
       width="98.355186"
       height="36.883194"
       id="rect1034" />
    <rect
       x="0"
       y="-298.6012"
       width="194.27975"
       height="57.452381"
       id="rect856" />
    <rect
       x="-344.71429"
       y="-326.57144"
       width="204.10715"
       height="108.10119"
       id="rect840" />
    <rect
       x="-344.71429"
       y="-326.57144"
       width="308.48688"
       height="46.992706"
       id="rect850" />
    <rect
       x="-344.71429"
       y="-326.57144"
       width="204.10715"
       height="108.10119"
       id="rect886" />
    <rect
       x="-344.71429"
       y="-326.57144"
       width="308.48688"
       height="46.992706"
       id="rect959" />
    <rect
       x="-166.77618"
       y="-838.15723"
       width="99.424263"
       height="36.348656"
       id="rect1122" />
    <rect
       x="-166.77618"
       y="-838.15723"
       width="99.424263"
       height="36.348656"
       id="rect1128" />
    <rect
       x="-166.77618"
       y="-838.15723"
       width="99.424263"
       height="36.348656"
       id="rect1138" />
    <rect
       x="-166.77618"
       y="-838.15723"
       width="99.424263"
       height="36.348656"
       id="rect1175" />
    <rect
       x="-460.375"
       y="-388.55954"
       width="40.82143"
       height="13.040179"
       id="rect1288" />
    <rect
       x="-590.02081"
       y="-382.13394"
       width="113.77084"
       height="15.119048"
       id="rect1306" />
    <rect
       x="-460.375"
       y="-388.55954"
       width="149.07182"
       height="74.149277"
       id="rect1409" />
    <rect
       x="-460.375"
       y="-388.55954"
       width="149.07182"
       height="74.149277"
       id="rect1415" />
    <filter
       style="color-interpolation-filters:sRGB"
       inkscape:label="Drop Shadow"
       id="filter1777">
      <feFlood
         flood-opacity="0.0470588"
         flood-color="rgb(0,0,0)"
         result="flood"
         id="feFlood1767" />
      <feComposite
         in="flood"
         in2="SourceGraphic"
         operator="in"
         result="composite1"
         id="feComposite1769" />
      <feGaussianBlur
         in="composite1"
         stdDeviation="0.9"
         result="blur"
         id="feGaussianBlur1771" />
      <feOffset
         dx="-1.5"
         dy="2.8"
         result="offset"
         id="feOffset1773" />
      <feComposite
         in="SourceGraphic"
         in2="offset"
         operator="over"
         result="composite2"
         id="feComposite1775" />
    </filter>
    <rect
       x="-460.375"
       y="-388.55954"
       width="149.07182"
       height="74.149277"
       id="rect1241" />
    <rect
       x="-460.375"
       y="-388.55954"
       width="149.07182"
       height="74.149277"
       id="rect1269" />
    <rect
       x="-460.375"
       y="-388.55954"
       width="149.07182"
       height="74.149277"
       id="rect1277" />
    <rect
       x="-460.375"
       y="-388.55954"
       width="149.07182"
       height="74.149277"
       id="rect1283" />
    <rect
       x="-460.375"
       y="-388.55954"
       width="149.07182"
       height="74.149277"
       id="rect1289" />
    <rect
       x="-460.375"
       y="-388.55954"
       width="149.07182"
       height="74.149277"
       id="rect1295" />
    <rect
       x="-460.375"
       y="-388.55954"
       width="207.52721"
       height="41.674057"
       id="rect1301" />
    <rect
       x="-460.375"
       y="-388.55954"
       width="149.07182"
       height="74.149277"
       id="rect1307" />
    <rect
       x="-460.375"
       y="-388.55954"
       width="149.07182"
       height="74.149277"
       id="rect1313" />
    <rect
       x="-460.375"
       y="-388.55954"
       width="149.07182"
       height="74.149277"
       id="rect1319" />
    <rect
       x="-460.375"
       y="-388.55954"
       width="233.92998"
       height="49.297958"
       id="rect1325" />
    <rect
       x="-460.375"
       y="-388.55954"
       width="233.92998"
       height="49.297958"
       id="rect1331" />
    <rect
       x="-460.375"
       y="-388.55954"
       width="67.159355"
       height="32.999386"
       id="rect1341" />
    <rect
       x="-460.375"
       y="-388.55954"
       width="67.159355"
       height="32.999386"
       id="rect1351" />
    <rect
       x="-460.375"
       y="-388.55954"
       width="67.159355"
       height="32.999386"
       id="rect1361" />
    <rect
       x="-460.375"
       y="-388.55954"
       width="67.159355"
       height="32.999386"
       id="rect1363" />
    <rect
       x="-460.375"
       y="-388.55954"
       width="93.485504"
       height="13.620415"
       id="rect1369" />
    <rect
       x="-460.375"
       y="-388.55954"
       width="67.159355"
       height="32.999386"
       id="rect1404" />
    <rect
       x="-460.375"
       y="-388.55954"
       width="67.159355"
       height="32.999386"
       id="rect1410" />
    <rect
       x="-460.375"
       y="-388.55954"
       width="67.159355"
       height="32.999386"
       id="rect1420" />
    <rect
       x="-460.375"
       y="-388.55954"
       width="67.159355"
       height="32.999386"
       id="rect1426" />
    <rect
       x="-460.375"
       y="-388.55954"
       width="67.159355"
       height="32.999386"
       id="rect1432" />
    <rect
       x="-460.375"
       y="-388.55954"
       width="106.04785"
       height="13.922008"
       id="rect1438" />
    <rect
       x="-460.375"
       y="-388.55954"
       width="106.04785"
       height="13.922008"
       id="rect1444" />
    <rect
       x="-460.375"
       y="-388.55954"
       width="149.07182"
       height="74.149277"
       id="rect1750" />
    <rect
       x="-460.375"
       y="-388.55954"
       width="149.07182"
       height="74.149277"
       id="rect1752" />
    <rect
       x="-460.375"
       y="-388.55954"
       width="149.07182"
       height="74.149277"
       id="rect1754" />
    <rect
       x="-460.375"
       y="-388.55954"
       width="168.97346"
       height="30.008429"
       id="rect1756" />
    <rect
       x="-460.375"
       y="-388.55954"
       width="149.07182"
       height="74.149277"
       id="rect1758" />
    <rect
       x="-460.375"
       y="-388.55954"
       width="149.07182"
       height="74.149277"
       id="rect1760" />
    <rect
       x="-460.375"
       y="-388.55954"
       width="149.07182"
       height="74.149277"
       id="rect1762" />
    <rect
       x="-460.375"
       y="-388.55954"
       width="149.07182"
       height="74.149277"
       id="rect1764" />
    <rect
       x="-460.375"
       y="-388.55954"
       width="149.07182"
       height="74.149277"
       id="rect1766" />
    <rect
       x="-460.375"
       y="-388.55954"
       width="233.92998"
       height="49.297958"
       id="rect1768" />
    <rect
       x="-460.375"
       y="-388.55954"
       width="67.159355"
       height="32.999386"
       id="rect1770" />
    <rect
       x="-460.375"
       y="-388.55954"
       width="67.159355"
       height="32.999386"
       id="rect1772" />
    <rect
       x="-460.375"
       y="-388.55954"
       width="67.159355"
       height="32.999386"
       id="rect1774" />
    <rect
       x="-460.375"
       y="-388.55954"
       width="67.159355"
       height="32.999386"
       id="rect1776" />
    <rect
       x="-460.375"
       y="-388.55954"
       width="149.07182"
       height="74.149277"
       id="rect1786" />
    <rect
       x="-460.375"
       y="-388.55954"
       width="149.07182"
       height="74.149277"
       id="rect1794" />
    <rect
       x="-460.375"
       y="-388.55954"
       width="149.07182"
       height="74.149277"
       id="rect1802" />
    <rect
       x="-460.375"
       y="-388.55954"
       width="149.07182"
       height="74.149277"
       id="rect1838" />
    <rect
       x="-460.375"
       y="-388.55954"
       width="149.07182"
       height="74.149277"
       id="rect1900" />
    <rect
       x="-460.375"
       y="-388.55954"
       width="149.07182"
       height="74.149277"
       id="rect1902" />
    <rect
       x="-460.375"
       y="-388.55954"
       width="149.07182"
       height="74.149277"
       id="rect1904" />
    <rect
       x="-460.375"
       y="-388.55954"
       width="149.07182"
       height="74.149277"
       id="rect1906" />
    <rect
       x="-460.375"
       y="-388.55954"
       width="149.07182"
       height="74.149277"
       id="rect1908" />
    <rect
       x="-460.375"
       y="-388.55954"
       width="149.07182"
       height="74.149277"
       id="rect1910" />
    <rect
       x="-460.375"
       y="-388.55954"
       width="149.07182"
       height="74.149277"
       id="rect1912" />
    <rect
       x="-460.375"
       y="-388.55954"
       width="149.07182"
       height="74.149277"
       id="rect1914" />
    <rect
       x="-460.375"
       y="-388.55954"
       width="67.159355"
       height="32.999386"
       id="rect1916" />
    <rect
       x="-460.375"
       y="-388.55954"
       width="149.07182"
       height="74.149277"
       id="rect1924" />
    <rect
       x="-460.375"
       y="-388.55954"
       width="149.07182"
       height="74.149277"
       id="rect1938" />
    <rect
       x="-460.375"
       y="-388.55954"
       width="202.51578"
       height="38.067188"
       id="rect1940" />
    <rect
       x="-460.375"
       y="-388.55954"
       width="297.76138"
       height="240.75429"
       id="rect1952" />
    <rect
       x="-460.375"
       y="-388.55954"
       width="67.159355"
       height="32.999386"
       id="rect1962" />
    <rect
       x="-460.375"
       y="-388.55954"
       width="67.159355"
       height="32.999386"
       id="rect1972" />
    <rect
       x="-460.375"
       y="-388.55954"
       width="67.159355"
       height="32.999386"
       id="rect1980" />
    <rect
       x="-460.375"
       y="-388.55954"
       width="149.07182"
       height="74.149277"
       id="rect2084" />
    <rect
       x="-460.375"
       y="-388.55954"
       width="233.92998"
       height="49.297958"
       id="rect2086" />
    <rect
       x="-460.375"
       y="-388.55954"
       width="67.159355"
       height="32.999386"
       id="rect2088" />
    <rect
       x="-460.375"
       y="-388.55954"
       width="67.159355"
       height="32.999386"
       id="rect2090" />
    <rect
       x="-460.375"
       y="-388.55954"
       width="67.159355"
       height="32.999386"
       id="rect2092" />
    <rect
       x="-460.375"
       y="-388.55954"
       width="149.07182"
       height="74.149277"
       id="rect2156" />
    <rect
       x="-460.375"
       y="-388.55954"
       width="233.92998"
       height="49.297958"
       id="rect2158" />
    <rect
       x="-460.375"
       y="-388.55954"
       width="149.07182"
       height="74.149277"
       id="rect2234" />
    <rect
       x="-460.375"
       y="-388.55954"
       width="207.52721"
       height="41.674057"
       id="rect2236" />
    <rect
       x="-460.375"
       y="-388.55954"
       width="149.07182"
       height="74.149277"
       id="rect2238" />
    <rect
       x="-460.375"
       y="-388.55954"
       width="202.51578"
       height="38.067188"
       id="rect2240" />
    <rect
       x="-460.375"
       y="-388.55954"
       width="93.485504"
       height="13.620415"
       id="rect2248" />
    <rect
       x="-460.375"
       y="-388.55954"
       width="83.243279"
       height="44.413784"
       id="rect2293" />
    <rect
       x="-460.375"
       y="-388.55954"
       width="115.21967"
       height="13.922008"
       id="rect2304" />
    <rect
       x="-460.375"
       y="-388.55954"
       width="115.21967"
       height="13.922008"
       id="rect2312" />
    <rect
       x="-460.375"
       y="-388.55954"
       width="67.159355"
       height="32.999386"
       id="rect2320" />
    <rect
       x="-460.375"
       y="-388.55954"
       width="67.159355"
       height="32.999386"
       id="rect2328" />
    <rect
       x="-460.375"
       y="-388.55954"
       width="297.76138"
       height="240.75429"
       id="rect2336" />
    <rect
       x="-460.375"
       y="-388.55954"
       width="149.07182"
       height="74.149277"
       id="rect2344" />
    <rect
       x="-460.375"
       y="-388.55954"
       width="149.07182"
       height="74.149277"
       id="rect2426" />
    <rect
       x="-460.375"
       y="-388.55954"
       width="149.07182"
       height="74.149277"
       id="rect2428" />
    <rect
       x="-460.375"
       y="-388.55954"
       width="149.07182"
       height="74.149277"
       id="rect2430" />
    <rect
       x="-460.375"
       y="-388.55954"
       width="149.07182"
       height="74.149277"
       id="rect2432" />
    <rect
       x="-460.375"
       y="-388.55954"
       width="149.07182"
       height="74.149277"
       id="rect2434" />
    <rect
       x="-460.375"
       y="-388.55954"
       width="149.07182"
       height="74.149277"
       id="rect2436" />
    <rect
       x="-460.375"
       y="-388.55954"
       width="149.07182"
       height="74.149277"
       id="rect2438" />
    <rect
       x="-460.375"
       y="-388.55954"
       width="149.07182"
       height="74.149277"
       id="rect2440" />
    <rect
       x="-460.375"
       y="-388.55954"
       width="86.550392"
       height="23.43314"
       id="rect2442" />
    <rect
       x="-460.375"
       y="-388.55954"
       width="149.07182"
       height="74.149277"
       id="rect2452" />
    <rect
       x="-460.375"
       y="-388.55954"
       width="149.07182"
       height="74.149277"
       id="rect2460" />
    <rect
       x="-460.375"
       y="-388.55954"
       width="149.07182"
       height="74.149277"
       id="rect2468" />
    <rect
       x="-460.375"
       y="-388.55954"
       width="149.07182"
       height="74.149277"
       id="rect2476" />
    <rect
       x="-460.375"
       y="-388.55954"
       width="149.07182"
       height="74.149277"
       id="rect2560" />
    <rect
       x="-460.375"
       y="-388.55954"
       width="149.07182"
       height="74.149277"
       id="rect2562" />
    <rect
       x="-460.375"
       y="-388.55954"
       width="149.07182"
       height="74.149277"
       id="rect2564" />
    <rect
       x="-460.375"
       y="-388.55954"
       width="149.07182"
       height="74.149277"
       id="rect2566" />
    <rect
       x="-460.375"
       y="-388.55954"
       width="149.07182"
       height="74.149277"
       id="rect2568" />
    <rect
       x="-460.375"
       y="-388.55954"
       width="149.07182"
       height="74.149277"
       id="rect2570" />
    <rect
       x="-460.375"
       y="-388.55954"
       width="149.07182"
       height="74.149277"
       id="rect2572" />
    <rect
       x="-460.375"
       y="-388.55954"
       width="149.07182"
       height="74.149277"
       id="rect2574" />
    <rect
       x="-460.375"
       y="-388.55954"
       width="86.550392"
       height="23.43314"
       id="rect2576" />
    <rect
       x="-460.375"
       y="-388.55954"
       width="149.07182"
       height="74.149277"
       id="rect2578" />
    <rect
       x="-460.375"
       y="-388.55954"
       width="149.07182"
       height="74.149277"
       id="rect2580" />
    <rect
       x="-460.375"
       y="-388.55954"
       width="149.07182"
       height="74.149277"
       id="rect2582" />
    <rect
       x="-460.375"
       y="-388.55954"
       width="149.07182"
       height="74.149277"
       id="rect2584" />
    <rect
       x="-460.375"
       y="-388.55954"
       width="67.159355"
       height="32.999386"
       id="rect2590" />
    <filter
       style="color-interpolation-filters:sRGB"
       inkscape:label="Drop Shadow"
       id="filter1777-3">
      <feFlood
         flood-opacity="0.0470588"
         flood-color="rgb(0,0,0)"
         result="flood"
         id="feFlood1767-8" />
      <feComposite
         in="flood"
         in2="SourceGraphic"
         operator="in"
         result="composite1"
         id="feComposite1769-8" />
      <feGaussianBlur
         in="composite1"
         stdDeviation="0.9"
         result="blur"
         id="feGaussianBlur1771-2" />
      <feOffset
         dx="-1.5"
         dy="2.8"
         result="offset"
         id="feOffset1773-4" />
      <feComposite
         in="SourceGraphic"
         in2="offset"
         operator="over"
         result="composite2"
         id="feComposite1775-1" />
    </filter>
    <rect
       x="-590.02081"
       y="-382.13394"
       width="113.77084"
       height="15.119048"
       id="rect1212-6" />
    <rect
       x="-590.02081"
       y="-382.13394"
       width="113.77084"
       height="15.119048"
       id="rect2607" />
    <rect
       x="-460.375"
       y="-388.55954"
       width="40.82143"
       height="13.040179"
       id="rect1276-2" />
    <rect
       x="-460.375"
       y="-388.55954"
       width="40.82143"
       height="13.040179"
       id="rect2610" />
    <rect
       x="-460.375"
       y="-388.55954"
       width="40.82143"
       height="13.040179"
       id="rect1288-8" />
    <rect
       x="-460.375"
       y="-388.55954"
       width="40.82143"
       height="13.040179"
       id="rect2613" />
    <rect
       x="-460.375"
       y="-388.55954"
       width="149.07182"
       height="74.149277"
       id="rect1409-7" />
    <rect
       x="-460.375"
       y="-388.55954"
       width="149.07182"
       height="74.149277"
       id="rect2616" />
    <rect
       x="-460.375"
       y="-388.55954"
       width="149.07182"
       height="74.149277"
       id="rect1415-0" />
    <rect
       x="-460.375"
       y="-388.55954"
       width="149.07182"
       height="74.149277"
       id="rect2619" />
    <filter
       style="color-interpolation-filters:sRGB"
       inkscape:label="Drop Shadow"
       id="filter2631">
      <feFlood
         flood-opacity="0.0470588"
         flood-color="rgb(0,0,0)"
         result="flood"
         id="feFlood2621" />
      <feComposite
         in="flood"
         in2="SourceGraphic"
         operator="in"
         result="composite1"
         id="feComposite2623" />
      <feGaussianBlur
         in="composite1"
         stdDeviation="0.9"
         result="blur"
         id="feGaussianBlur2625" />
      <feOffset
         dx="-1.5"
         dy="2.8"
         result="offset"
         id="feOffset2627" />
      <feComposite
         in="SourceGraphic"
         in2="offset"
         operator="over"
         result="composite2"
         id="feComposite2629" />
    </filter>
    <rect
       x="-460.375"
       y="-388.55954"
       width="149.07182"
       height="74.149277"
       id="rect1241-2" />
    <rect
       x="-460.375"
       y="-388.55954"
       width="149.07182"
       height="74.149277"
       id="rect2634" />
    <rect
       x="-460.375"
       y="-388.55954"
       width="233.92998"
       height="49.297958"
       id="rect1325-5" />
    <rect
       x="-460.375"
       y="-388.55954"
       width="233.92998"
       height="49.297958"
       id="rect2637" />
    <rect
       x="-460.375"
       y="-388.55954"
       width="67.159355"
       height="32.999386"
       id="rect1420-9" />
    <rect
       x="-460.375"
       y="-388.55954"
       width="67.159355"
       height="32.999386"
       id="rect2640" />
    <rect
       x="-460.375"
       y="-388.55954"
       width="67.159355"
       height="32.999386"
       id="rect1426-7" />
    <rect
       x="-460.375"
       y="-388.55954"
       width="67.159355"
       height="32.999386"
       id="rect2643" />
    <rect
       x="-460.375"
       y="-388.55954"
       width="67.159355"
       height="32.999386"
       id="rect1432-1" />
    <rect
       x="-460.375"
       y="-388.55954"
       width="67.159355"
       height="32.999386"
       id="rect2646" />
    <rect
       x="-460.375"
       y="-388.55954"
       width="106.04785"
       height="13.922008"
       id="rect1438-6" />
    <rect
       x="-460.375"
       y="-388.55954"
       width="106.04785"
       height="13.922008"
       id="rect2649" />
    <rect
       x="-460.375"
       y="-388.55954"
       width="106.04785"
       height="13.922008"
       id="rect1444-5" />
    <rect
       x="-460.375"
       y="-388.55954"
       width="106.04785"
       height="13.922008"
       id="rect2652" />
    <rect
       x="-460.375"
       y="-388.55954"
       width="149.07182"
       height="74.149277"
       id="rect1924-0" />
    <rect
       x="-460.375"
       y="-388.55954"
       width="149.07182"
       height="74.149277"
       id="rect2655" />
    <rect
       x="-460.375"
       y="-388.55954"
       width="149.07182"
       height="74.149277"
       id="rect2156-0" />
    <rect
       x="-460.375"
       y="-388.55954"
       width="149.07182"
       height="74.149277"
       id="rect2658" />
    <rect
       x="-460.375"
       y="-388.55954"
       width="233.92998"
       height="49.297958"
       id="rect2158-0" />
    <rect
       x="-460.375"
       y="-388.55954"
       width="233.92998"
       height="49.297958"
       id="rect2661" />
    <rect
       x="-460.375"
       y="-388.55954"
       width="149.07182"
       height="74.149277"
       id="rect2234-7" />
    <rect
       x="-460.375"
       y="-388.55954"
       width="149.07182"
       height="74.149277"
       id="rect2664" />
    <rect
       x="-460.375"
       y="-388.55954"
       width="207.52721"
       height="41.674057"
       id="rect2236-4" />
    <rect
       x="-460.375"
       y="-388.55954"
       width="207.52721"
       height="41.674057"
       id="rect2667" />
    <rect
       x="-460.375"
       y="-388.55954"
       width="149.07182"
       height="74.149277"
       id="rect2238-0" />
    <rect
       x="-460.375"
       y="-388.55954"
       width="149.07182"
       height="74.149277"
       id="rect2670" />
    <rect
       x="-460.375"
       y="-388.55954"
       width="202.51578"
       height="38.067188"
       id="rect2240-1" />
    <rect
       x="-460.375"
       y="-388.55954"
       width="202.51578"
       height="38.067188"
       id="rect2673" />
    <rect
       x="-460.375"
       y="-388.55954"
       width="93.485504"
       height="13.620415"
       id="rect2248-7" />
    <rect
       x="-460.375"
       y="-388.55954"
       width="93.485504"
       height="13.620415"
       id="rect2676" />
    <rect
       x="-460.375"
       y="-388.55954"
       width="83.243279"
       height="44.413784"
       id="rect2293-9" />
    <rect
       x="-460.375"
       y="-388.55954"
       width="83.243279"
       height="44.413784"
       id="rect2679" />
    <rect
       x="-460.375"
       y="-388.55954"
       width="115.21967"
       height="13.922008"
       id="rect2304-1" />
    <rect
       x="-460.375"
       y="-388.55954"
       width="115.21967"
       height="13.922008"
       id="rect2682" />
    <rect
       x="-460.375"
       y="-388.55954"
       width="115.21967"
       height="13.922008"
       id="rect2312-3" />
    <rect
       x="-460.375"
       y="-388.55954"
       width="115.21967"
       height="13.922008"
       id="rect2685" />
    <rect
       x="-460.375"
       y="-388.55954"
       width="67.159355"
       height="32.999386"
       id="rect2320-9" />
    <rect
       x="-460.375"
       y="-388.55954"
       width="67.159355"
       height="32.999386"
       id="rect2688" />
    <rect
       x="-460.375"
       y="-388.55954"
       width="67.159355"
       height="32.999386"
       id="rect2328-1" />
    <rect
       x="-460.375"
       y="-388.55954"
       width="67.159355"
       height="32.999386"
       id="rect2691" />
    <rect
       x="-460.375"
       y="-388.55954"
       width="149.07182"
       height="74.149277"
       id="rect2426-2" />
    <rect
       x="-460.375"
       y="-388.55954"
       width="149.07182"
       height="74.149277"
       id="rect2694" />
    <rect
       x="-460.375"
       y="-388.55954"
       width="149.07182"
       height="74.149277"
       id="rect2428-1" />
    <rect
       x="-460.375"
       y="-388.55954"
       width="149.07182"
       height="74.149277"
       id="rect2697" />
    <rect
       x="-460.375"
       y="-388.55954"
       width="149.07182"
       height="74.149277"
       id="rect2430-2" />
    <rect
       x="-460.375"
       y="-388.55954"
       width="149.07182"
       height="74.149277"
       id="rect2700" />
    <rect
       x="-460.375"
       y="-388.55954"
       width="149.07182"
       height="74.149277"
       id="rect2432-3" />
    <rect
       x="-460.375"
       y="-388.55954"
       width="149.07182"
       height="74.149277"
       id="rect2703" />
    <rect
       x="-460.375"
       y="-388.55954"
       width="149.07182"
       height="74.149277"
       id="rect2434-4" />
    <rect
       x="-460.375"
       y="-388.55954"
       width="149.07182"
       height="74.149277"
       id="rect2706" />
    <rect
       x="-460.375"
       y="-388.55954"
       width="149.07182"
       height="74.149277"
       id="rect2436-6" />
    <rect
       x="-460.375"
       y="-388.55954"
       width="149.07182"
       height="74.149277"
       id="rect2709" />
    <rect
       x="-460.375"
       y="-388.55954"
       width="149.07182"
       height="74.149277"
       id="rect2438-6" />
    <rect
       x="-460.375"
       y="-388.55954"
       width="149.07182"
       height="74.149277"
       id="rect2712" />
    <rect
       x="-460.375"
       y="-388.55954"
       width="149.07182"
       height="74.149277"
       id="rect2440-9" />
    <rect
       x="-460.375"
       y="-388.55954"
       width="149.07182"
       height="74.149277"
       id="rect2715" />
    <rect
       x="-460.375"
       y="-388.55954"
       width="86.550392"
       height="23.43314"
       id="rect2442-3" />
    <rect
       x="-460.375"
       y="-388.55954"
       width="86.550392"
       height="23.43314"
       id="rect2718" />
    <rect
       x="-460.375"
       y="-388.55954"
       width="149.07182"
       height="74.149277"
       id="rect2452-0" />
    <rect
       x="-460.375"
       y="-388.55954"
       width="149.07182"
       height="74.149277"
       id="rect2721" />
    <rect
       x="-460.375"
       y="-388.55954"
       width="149.07182"
       height="74.149277"
       id="rect2460-5" />
    <rect
       x="-460.375"
       y="-388.55954"
       width="149.07182"
       height="74.149277"
       id="rect2724" />
    <rect
       x="-460.375"
       y="-388.55954"
       width="149.07182"
       height="74.149277"
       id="rect2468-6" />
    <rect
       x="-460.375"
       y="-388.55954"
       width="149.07182"
       height="74.149277"
       id="rect2727" />
    <rect
       x="-460.375"
       y="-388.55954"
       width="149.07182"
       height="74.149277"
       id="rect2476-0" />
    <rect
       x="-460.375"
       y="-388.55954"
       width="149.07182"
       height="74.149277"
       id="rect2730" />
    <rect
       x="-460.375"
       y="-388.55954"
       width="67.159355"
       height="32.999386"
       id="rect2590-4" />
    <rect
       x="-460.375"
       y="-388.55954"
       width="67.159355"
       height="32.999386"
       id="rect2733" />
    <rect
       x="-460.375"
       y="-388.55954"
       width="67.159355"
       height="32.999386"
       id="rect3587" />
    <rect
       x="-460.375"
       y="-388.55954"
       width="67.159355"
       height="32.999386"
       id="rect3595" />
    <rect
       x="-590.02081"
       y="-382.13394"
       width="113.77084"
       height="15.119048"
       id="rect2185" />
    <rect
       x="-590.02081"
       y="-382.13394"
       width="113.77084"
       height="15.119048"
       id="rect2283" />
    <rect
       x="-460.375"
       y="-388.55954"
       width="40.82143"
       height="13.040179"
       id="rect2285" />
    <rect
       x="-460.375"
       y="-388.55954"
       width="40.82143"
       height="13.040179"
       id="rect2287" />
    <rect
       x="-460.375"
       y="-388.55954"
       width="149.07182"
       height="74.149277"
       id="rect2289" />
    <rect
       x="-460.375"
       y="-388.55954"
       width="149.07182"
       height="74.149277"
       id="rect2291" />
    <rect
       x="-460.375"
       y="-388.55954"
       width="149.07182"
       height="74.149277"
       id="rect2294" />
    <rect
       x="-460.375"
       y="-388.55954"
       width="233.92998"
       height="49.297958"
       id="rect2297" />
    <rect
       x="-460.375"
       y="-388.55954"
       width="67.159355"
       height="32.999386"
       id="rect2299" />
    <rect
       x="-460.375"
       y="-388.55954"
       width="67.159355"
       height="32.999386"
       id="rect2301" />
    <rect
       x="-460.375"
       y="-388.55954"
       width="67.159355"
       height="32.999386"
       id="rect2303" />
    <rect
       x="-460.375"
       y="-388.55954"
       width="106.04785"
       height="13.922008"
       id="rect2305" />
    <rect
       x="-460.375"
       y="-388.55954"
       width="106.04785"
       height="13.922008"
       id="rect2307" />
    <rect
       x="-460.375"
       y="-388.55954"
       width="149.07182"
       height="74.149277"
       id="rect2309" />
    <rect
       x="-460.375"
       y="-388.55954"
       width="233.92998"
       height="49.297958"
       id="rect2311" />
    <rect
       x="-460.375"
       y="-388.55954"
       width="149.07182"
       height="74.149277"
       id="rect2313" />
    <rect
       x="-460.375"
       y="-388.55954"
       width="207.52721"
       height="41.674057"
       id="rect2315" />
    <rect
       x="-460.375"
       y="-388.55954"
       width="149.07182"
       height="74.149277"
       id="rect2317" />
    <rect
       x="-460.375"
       y="-388.55954"
       width="202.51578"
       height="38.067188"
       id="rect2319" />
    <rect
       x="-460.375"
       y="-388.55954"
       width="93.485504"
       height="13.620415"
       id="rect2321" />
    <rect
       x="-460.375"
       y="-388.55954"
       width="115.21967"
       height="13.922008"
       id="rect2323" />
    <rect
       x="-460.375"
       y="-388.55954"
       width="115.21967"
       height="13.922008"
       id="rect2325" />
    <rect
       x="-460.375"
       y="-388.55954"
       width="67.159355"
       height="32.999386"
       id="rect2327" />
    <rect
       x="-460.375"
       y="-388.55954"
       width="67.159355"
       height="32.999386"
       id="rect2329" />
    <rect
       x="-460.375"
       y="-388.55954"
       width="67.159355"
       height="32.999386"
       id="rect2331" />
    <rect
       x="-460.375"
       y="-388.55954"
       width="233.92998"
       height="49.297958"
       id="rect2339" />
    <rect
       x="-460.375"
       y="-388.55954"
       width="233.92998"
       height="49.297958"
       id="rect2347" />
    <filter
       style="color-interpolation-filters:sRGB"
       inkscape:label="Drop Shadow"
       id="filter2758">
      <feFlood
         flood-opacity="0.498039"
         flood-color="rgb(233,233,233)"
         result="flood"
         id="feFlood2748" />
      <feComposite
         in="flood"
         in2="SourceGraphic"
         operator="in"
         result="composite1"
         id="feComposite2750" />
      <feGaussianBlur
         in="composite1"
         stdDeviation="0.7"
         result="blur"
         id="feGaussianBlur2752" />
      <feOffset
         dx="-1.38778e-16"
         dy="0.7"
         result="offset"
         id="feOffset2754" />
      <feComposite
         in="SourceGraphic"
         in2="offset"
         operator="over"
         result="composite2"
         id="feComposite2756" />
    </filter>
    <filter
       style="color-interpolation-filters:sRGB"
       inkscape:label="Drop Shadow"
       id="filter2818">
      <feFlood
         flood-opacity="0.498039"
         flood-color="rgb(152,152,152)"
         result="flood"
         id="feFlood2808" />
      <feComposite
         in="flood"
         in2="SourceGraphic"
         operator="in"
         result="composite1"
         id="feComposite2810" />
      <feGaussianBlur
         in="composite1"
         stdDeviation="0.4"
         result="blur"
         id="feGaussianBlur2812" />
      <feOffset
         dx="-1.38778e-16"
         dy="1.0574"
         result="offset"
         id="feOffset2814" />
      <feComposite
         in="SourceGraphic"
         in2="offset"
         operator="over"
         result="composite2"
         id="feComposite2816" />
    </filter>
    <filter
       style="color-interpolation-filters:sRGB"
       inkscape:label="Drop Shadow"
       id="filter3058">
      <feFlood
         flood-opacity="0.498039"
         flood-color="rgb(152,152,152)"
         result="flood"
         id="feFlood3048" />
      <feComposite
         in="flood"
         in2="SourceGraphic"
         operator="in"
         result="composite1"
         id="feComposite3050" />
      <feGaussianBlur
         in="composite1"
         stdDeviation="1.9"
         result="blur"
         id="feGaussianBlur3052" />
      <feOffset
         dx="-1.38778e-16"
         dy="-0.4"
         result="offset"
         id="feOffset3054" />
      <feComposite
         in="SourceGraphic"
         in2="offset"
         operator="over"
         result="composite2"
         id="feComposite3056" />
    </filter>
    <rect
       x="-460.375"
       y="-388.55954"
       width="149.07182"
       height="74.149277"
       id="rect3270" />
    <rect
       x="-460.375"
       y="-388.55954"
       width="233.92998"
       height="49.297958"
       id="rect3272" />
    <rect
       x="-460.375"
       y="-388.55954"
       width="115.21967"
       height="13.922008"
       id="rect3274" />
    <rect
       x="-460.375"
       y="-388.55954"
       width="233.92998"
       height="49.297958"
       id="rect3276" />
    <rect
       x="-460.375"
       y="-388.55954"
       width="119.62214"
       height="16.123243"
       id="rect3326" />
    <rect
       x="-460.375"
       y="-388.55954"
       width="67.159355"
       height="32.999386"
       id="rect3328" />
    <rect
       x="-460.375"
       y="-388.55954"
       width="119.62214"
       height="16.123243"
       id="rect3342" />
    <rect
       x="-460.375"
       y="-388.55954"
       width="143.83574"
       height="17.957607"
       id="rect3344" />
    <filter
       style="color-interpolation-filters:sRGB"
       inkscape:label="Drop Shadow"
       id="filter1777-3-8">
      <feFlood
         flood-opacity="0.0470588"
         flood-color="rgb(0,0,0)"
         result="flood"
         id="feFlood1767-8-1" />
      <feComposite
         in="flood"
         in2="SourceGraphic"
         operator="in"
         result="composite1"
         id="feComposite1769-8-1" />
      <feGaussianBlur
         in="composite1"
         stdDeviation="0.9"
         result="blur"
         id="feGaussianBlur1771-2-7" />
      <feOffset
         dx="-1.5"
         dy="2.8"
         result="offset"
         id="feOffset1773-4-1" />
      <feComposite
         in="SourceGraphic"
         in2="offset"
         operator="over"
         result="composite2"
         id="feComposite1775-1-5" />
    </filter>
    <rect
       x="-460.375"
       y="-388.55954"
       width="67.159355"
       height="32.999386"
       id="rect2320-9-3" />
    <rect
       x="-460.375"
       y="-388.55954"
       width="67.159355"
       height="32.999386"
       id="rect3453" />
    <rect
       x="-460.375"
       y="-388.55954"
       width="67.159355"
       height="32.999386"
       id="rect2328-1-9" />
    <rect
       x="-460.375"
       y="-388.55954"
       width="67.159355"
       height="32.999386"
       id="rect3456" />
    <rect
       x="-519.33929"
       y="-244.92857"
       width="145.52084"
       height="29.860121"
       id="rect3524-6" />
    <rect
       x="-519.33929"
       y="-244.92857"
       width="145.52084"
       height="29.860121"
       id="rect3459" />
    <rect
       x="-460.375"
       y="-388.55954"
       width="67.159355"
       height="32.999386"
       id="rect3587-1" />
    <rect
       x="-460.375"
       y="-388.55954"
       width="67.159355"
       height="32.999386"
       id="rect3462" />
    <rect
       x="-460.375"
       y="-388.55954"
       width="67.159355"
       height="32.999386"
       id="rect3595-4" />
    <rect
       x="-460.375"
       y="-388.55954"
       width="67.159355"
       height="32.999386"
       id="rect3465" />
    <rect
       x="-590.02081"
       y="-382.13394"
       width="113.77084"
       height="15.119048"
       id="rect2185-4" />
    <rect
       x="-590.02081"
       y="-382.13394"
       width="113.77084"
       height="15.119048"
       id="rect3468" />
    <rect
       x="-460.375"
       y="-388.55954"
       width="67.159355"
       height="32.999386"
       id="rect2455" />
    <rect
       x="-460.375"
       y="-388.55954"
       width="67.159355"
       height="32.999386"
       id="rect2457" />
    <rect
       x="-519.33929"
       y="-244.92857"
       width="210.83054"
       height="38.023834"
       id="rect2459" />
    <rect
       x="-460.375"
       y="-388.55954"
       width="67.159355"
       height="32.999386"
       id="rect2461" />
    <rect
       x="-460.375"
       y="-388.55954"
       width="67.159355"
       height="32.999386"
       id="rect2463" />
    <rect
       x="-590.02081"
       y="-382.13394"
       width="51.299423"
       height="12.248804"
       id="rect2465" />
    <rect
       x="-590.02081"
       y="-382.13394"
       width="113.77084"
       height="15.119048"
       id="rect2471" />
    <rect
       x="-590.02081"
       y="-382.13394"
       width="113.77084"
       height="15.119048"
       id="rect2477" />
    <rect
       x="-590.02081"
       y="-382.13394"
       width="113.77084"
       height="15.119048"
       id="rect2483" />
    <rect
       x="-590.02081"
       y="-382.13394"
       width="51.299423"
       height="12.248804"
       id="rect2515" />
    <rect
       x="-590.02081"
       y="-382.13394"
       width="51.299423"
       height="12.248804"
       id="rect2521" />
    <rect
       x="-590.02081"
       y="-382.13394"
       width="113.77084"
       height="15.119048"
       id="rect2529" />
    <rect
       x="-590.02081"
       y="-382.13394"
       width="113.77084"
       height="15.119048"
       id="rect2450" />
    <rect
       x="-590.02081"
       y="-382.13394"
       width="113.77084"
       height="15.119048"
       id="rect2731" />
    <rect
       x="-460.375"
       y="-388.55954"
       width="40.82143"
       height="13.040179"
       id="rect2734" />
    <rect
       x="-460.375"
       y="-388.55954"
       width="149.07182"
       height="74.149277"
       id="rect2736" />
    <rect
       x="-460.375"
       y="-388.55954"
       width="67.159355"
       height="32.999386"
       id="rect2738" />
    <rect
       x="-460.375"
       y="-388.55954"
       width="67.159355"
       height="32.999386"
       id="rect2740" />
    <rect
       x="-460.375"
       y="-388.55954"
       width="67.159355"
       height="32.999386"
       id="rect2742" />
    <rect
       x="-460.375"
       y="-388.55954"
       width="67.159355"
       height="32.999386"
       id="rect2744" />
    <rect
       x="-460.375"
       y="-388.55954"
       width="67.159355"
       height="32.999386"
       id="rect2746" />
    <rect
       x="-460.375"
       y="-388.55954"
       width="149.07182"
       height="74.149277"
       id="rect2748" />
    <rect
       x="-460.375"
       y="-388.55954"
       width="233.92998"
       height="49.297958"
       id="rect2750" />
    <rect
       x="-460.375"
       y="-388.55954"
       width="115.21967"
       height="13.922008"
       id="rect2752" />
    <rect
       x="-460.375"
       y="-388.55954"
       width="233.92998"
       height="49.297958"
       id="rect2754" />
    <rect
       x="-460.375"
       y="-388.55954"
       width="149.07182"
       height="74.149277"
       id="rect2756" />
    <rect
       x="-460.375"
       y="-388.55954"
       width="233.92998"
       height="49.297958"
       id="rect2758" />
    <rect
       x="-460.375"
       y="-388.55954"
       width="149.07182"
       height="74.149277"
       id="rect2760" />
    <rect
       x="-460.375"
       y="-388.55954"
       width="207.52721"
       height="41.674057"
       id="rect2762" />
    <rect
       x="-460.375"
       y="-388.55954"
       width="149.07182"
       height="74.149277"
       id="rect2764" />
    <rect
       x="-460.375"
       y="-388.55954"
       width="202.51578"
       height="38.067188"
       id="rect2766" />
    <rect
       x="-460.375"
       y="-388.55954"
       width="93.485504"
       height="13.620415"
       id="rect2768" />
    <rect
       x="-460.375"
       y="-388.55954"
       width="115.21967"
       height="13.922008"
       id="rect2770" />
    <rect
       x="-460.375"
       y="-388.55954"
       width="233.92998"
       height="49.297958"
       id="rect2772" />
    <rect
       x="-460.375"
       y="-388.55954"
       width="149.07182"
       height="74.149277"
       id="rect2774" />
    <rect
       x="-460.375"
       y="-388.55954"
       width="233.92998"
       height="49.297958"
       id="rect2776" />
    <rect
       x="-460.375"
       y="-388.55954"
       width="115.21967"
       height="13.922008"
       id="rect2778" />
    <rect
       x="-460.375"
       y="-388.55954"
       width="233.92998"
       height="49.297958"
       id="rect2780" />
    <rect
       x="-460.375"
       y="-388.55954"
       width="119.62214"
       height="16.123243"
       id="rect2782" />
    <rect
       x="-460.375"
       y="-388.55954"
       width="67.159355"
       height="32.999386"
       id="rect2784" />
    <rect
       x="-460.375"
       y="-388.55954"
       width="119.62214"
       height="16.123243"
       id="rect2786" />
    <rect
       x="-460.375"
       y="-388.55954"
       width="143.83574"
       height="17.957607"
       id="rect2788" />
    <rect
       x="-590.02081"
       y="-382.13394"
       width="113.77084"
       height="15.119048"
       id="rect4055" />
    <rect
       x="-460.375"
       y="-388.55954"
       width="40.82143"
       height="13.040179"
       id="rect4057" />
    <rect
       x="-460.375"
       y="-388.55954"
       width="149.07182"
       height="74.149277"
       id="rect4059" />
    <rect
       x="-460.375"
       y="-388.55954"
       width="149.07182"
       height="74.149277"
       id="rect4061" />
    <rect
       x="-460.375"
       y="-388.55954"
       width="67.159355"
       height="32.999386"
       id="rect4063" />
    <rect
       x="-460.375"
       y="-388.55954"
       width="67.159355"
       height="32.999386"
       id="rect4065" />
    <rect
       x="-460.375"
       y="-388.55954"
       width="67.159355"
       height="32.999386"
       id="rect4067" />
    <rect
       x="-460.375"
       y="-388.55954"
       width="106.04785"
       height="13.922008"
       id="rect4069" />
    <rect
       x="-460.375"
       y="-388.55954"
       width="106.04785"
       height="13.922008"
       id="rect4071" />
    <rect
       x="-460.375"
       y="-388.55954"
       width="67.159355"
       height="32.999386"
       id="rect4073" />
    <rect
       x="-460.375"
       y="-388.55954"
       width="67.159355"
       height="32.999386"
       id="rect4075" />
    <rect
       x="-460.375"
       y="-388.55954"
       width="67.159355"
       height="32.999386"
       id="rect4077" />
    <rect
       x="-460.375"
       y="-388.55954"
       width="149.07182"
       height="74.149277"
       id="rect4079" />
    <rect
       x="-460.375"
       y="-388.55954"
       width="233.92998"
       height="49.297958"
       id="rect4081" />
    <rect
       x="-460.375"
       y="-388.55954"
       width="115.21967"
       height="13.922008"
       id="rect4083" />
    <rect
       x="-460.375"
       y="-388.55954"
       width="233.92998"
       height="49.297958"
       id="rect4085" />
    <rect
       x="-460.375"
       y="-388.55954"
       width="149.07182"
       height="74.149277"
       id="rect4087" />
    <rect
       x="-460.375"
       y="-388.55954"
       width="233.92998"
       height="49.297958"
       id="rect4089" />
    <rect
       x="-460.375"
       y="-388.55954"
       width="149.07182"
       height="74.149277"
       id="rect4091" />
    <rect
       x="-460.375"
       y="-388.55954"
       width="207.52721"
       height="41.674057"
       id="rect4093" />
    <rect
       x="-460.375"
       y="-388.55954"
       width="149.07182"
       height="74.149277"
       id="rect4095" />
    <rect
       x="-460.375"
       y="-388.55954"
       width="202.51578"
       height="38.067188"
       id="rect4097" />
    <rect
       x="-460.375"
       y="-388.55954"
       width="93.485504"
       height="13.620415"
       id="rect4099" />
    <rect
       x="-460.375"
       y="-388.55954"
       width="115.21967"
       height="13.922008"
       id="rect4101" />
    <rect
       x="-460.375"
       y="-388.55954"
       width="233.92998"
       height="49.297958"
       id="rect4103" />
    <rect
       x="-460.375"
       y="-388.55954"
       width="149.07182"
       height="74.149277"
       id="rect4105" />
    <rect
       x="-460.375"
       y="-388.55954"
       width="233.92998"
       height="49.297958"
       id="rect4107" />
    <rect
       x="-460.375"
       y="-388.55954"
       width="115.21967"
       height="13.922008"
       id="rect4109" />
    <rect
       x="-460.375"
       y="-388.55954"
       width="233.92998"
       height="49.297958"
       id="rect4111" />
    <rect
       x="-460.375"
       y="-388.55954"
       width="119.62214"
       height="16.123243"
       id="rect4113" />
    <rect
       x="-460.375"
       y="-388.55954"
       width="67.159355"
       height="32.999386"
       id="rect4115" />
    <rect
       x="-460.375"
       y="-388.55954"
       width="119.62214"
       height="16.123243"
       id="rect4117" />
    <rect
       x="-460.375"
       y="-388.55954"
       width="143.83574"
       height="17.957607"
       id="rect4119" />
    <rect
       x="2007.7288"
       y="-315.9126"
       width="66.817383"
       height="43.297665"
       id="rect4121" />
    <rect
       x="-590.02081"
       y="-382.13394"
       width="113.77084"
       height="15.119048"
       id="rect4123" />
    <rect
       x="-460.375"
       y="-388.55954"
       width="40.82143"
       height="13.040179"
       id="rect4125" />
    <rect
       x="-460.375"
       y="-388.55954"
       width="149.07182"
       height="74.149277"
       id="rect4127" />
    <rect
       x="-460.375"
       y="-388.55954"
       width="67.159355"
       height="32.999386"
       id="rect4129" />
    <rect
       x="-460.375"
       y="-388.55954"
       width="67.159355"
       height="32.999386"
       id="rect4131" />
    <rect
       x="-460.375"
       y="-388.55954"
       width="67.159355"
       height="32.999386"
       id="rect4133" />
    <rect
       x="-460.375"
       y="-388.55954"
       width="67.159355"
       height="32.999386"
       id="rect4135" />
    <rect
       x="-460.375"
       y="-388.55954"
       width="67.159355"
       height="32.999386"
       id="rect4137" />
    <rect
       x="-460.375"
       y="-388.55954"
       width="149.07182"
       height="74.149277"
       id="rect4139" />
    <rect
       x="-460.375"
       y="-388.55954"
       width="233.92998"
       height="49.297958"
       id="rect4141" />
    <rect
       x="-460.375"
       y="-388.55954"
       width="115.21967"
       height="13.922008"
       id="rect4143" />
    <rect
       x="-460.375"
       y="-388.55954"
       width="233.92998"
       height="49.297958"
       id="rect4145" />
    <rect
       x="-460.375"
       y="-388.55954"
       width="149.07182"
       height="74.149277"
       id="rect4147" />
    <rect
       x="-460.375"
       y="-388.55954"
       width="233.92998"
       height="49.297958"
       id="rect4149" />
    <rect
       x="-460.375"
       y="-388.55954"
       width="149.07182"
       height="74.149277"
       id="rect4151" />
    <rect
       x="-460.375"
       y="-388.55954"
       width="207.52721"
       height="41.674057"
       id="rect4153" />
    <rect
       x="-460.375"
       y="-388.55954"
       width="149.07182"
       height="74.149277"
       id="rect4155" />
    <rect
       x="-460.375"
       y="-388.55954"
       width="202.51578"
       height="38.067188"
       id="rect4157" />
    <rect
       x="-460.375"
       y="-388.55954"
       width="93.485504"
       height="13.620415"
       id="rect4159" />
    <rect
       x="-460.375"
       y="-388.55954"
       width="115.21967"
       height="13.922008"
       id="rect4161" />
    <rect
       x="-460.375"
       y="-388.55954"
       width="233.92998"
       height="49.297958"
       id="rect4163" />
    <rect
       x="-460.375"
       y="-388.55954"
       width="149.07182"
       height="74.149277"
       id="rect4165" />
    <rect
       x="-460.375"
       y="-388.55954"
       width="233.92998"
       height="49.297958"
       id="rect4167" />
    <rect
       x="-460.375"
       y="-388.55954"
       width="115.21967"
       height="13.922008"
       id="rect4169" />
    <rect
       x="-460.375"
       y="-388.55954"
       width="233.92998"
       height="49.297958"
       id="rect4171" />
    <rect
       x="-460.375"
       y="-388.55954"
       width="119.62214"
       height="16.123243"
       id="rect4173" />
    <rect
       x="-460.375"
       y="-388.55954"
       width="67.159355"
       height="32.999386"
       id="rect4175" />
    <rect
       x="-460.375"
       y="-388.55954"
       width="119.62214"
       height="16.123243"
       id="rect4177" />
    <rect
       x="-460.375"
       y="-388.55954"
       width="143.83574"
       height="17.957607"
       id="rect4179" />
    <rect
       x="-590.02081"
       y="-382.13394"
       width="51.299423"
       height="12.248804"
       id="rect4203" />
  </defs>
  <sodipodi:namedview
     id="base"
     pagecolor="#ffffff"
     bordercolor="#666666"
     borderopacity="1.0"
     inkscape:pageopacity="0.0"
     inkscape:pageshadow="2"
     inkscape:zoom="2.8284271"
     inkscape:cx="55.214987"
     inkscape:cy="47.931788"
     inkscape:document-units="px"
     inkscape:current-layer="layer3"
     inkscape:document-rotation="0"
     showgrid="false"
     units="px"
     inkscape:showpageshadow="false"
     inkscape:window-width="1920"
     inkscape:window-height="1018"
     inkscape:window-x="-9"
     inkscape:window-y="-9"
     inkscape:window-maximized="1"
     showborder="true"
     inkscape:lockguides="true" />
  <metadata
     id="metadata5">
    <rdf:RDF>
      <cc:Work
         rdf:about="">
        <dc:format>image/svg+xml</dc:format>
        <dc:type
           rdf:resource="http://purl.org/dc/dcmitype/StillImage" />
        <dc:title></dc:title>
      </cc:Work>
    </rdf:RDF>
  </metadata>
  <g
     inkscape:groupmode="layer"
     id="layer1"
     inkscape:label="title" />
  <g
     inkscape:groupmode="layer"
     id="layer3"
     inkscape:label="readme">
    <g
       id="g4"
       transform="matrix(0.4510496,0,0,0.4510496,21.620589,4.289858)"
       style="stroke-width:2.21703">
      <path
         d="m 84.686988,0.01291891 c -1.782211,0 -3.469438,0.38848282 -5.062209,1.16579239 C 78.032166,1.9371034 76.752763,3.0083614 75.785723,4.3923 74.818789,5.757374 74.33519,7.30268 74.33519,9.0280062 c 0,1.5736688 0.360067,3.0807698 1.080544,4.5216718 0.720452,1.421986 1.839043,2.597329 3.355933,3.526323 1.516758,0.910075 3.412817,1.365285 5.687941,1.365285 1.933868,0 3.744865,-0.369539 5.432092,-1.10896 0.170564,-0.07596 0.27466,-0.142678 0.312628,-0.19947 0.05679,-0.07583 0.104128,-0.227229 0.142108,-0.45476 l 0.398431,-3.043199 c 0,-0.03798 -0.02847,-0.06628 -0.08527,-0.08526 -0.03797,-0.01899 -0.08531,-0.02842 -0.142109,-0.02842 -0.07578,0 -0.113684,0.02847 -0.113684,0.08526 -0.473995,1.516784 -1.223048,2.644821 -2.246867,3.384243 -1.004874,0.739421 -2.208608,1.10896 -3.611517,1.10896 -1.497813,0 -2.891859,-0.436266 -4.181157,-1.308427 -1.289246,-0.891106 -2.322166,-2.085393 -3.099555,-3.583207 -0.777336,-1.516784 -1.166322,-3.166229 -1.166322,-4.94844 0,-1.5167578 0.31276,-2.8534953 0.938439,-4.0099745 0.625679,-1.1564792 1.498264,-2.0475052 2.616855,-2.6733163 1.137588,-0.64462272 2.445407,-0.9668547 3.924251,-0.9668547 3.697241,0 5.886905,1.3840444 6.569521,4.1520539 0.019,0.056969 0.07628,0.085264 0.171046,0.085264 0.09477,-0.018989 0.142108,-0.056898 0.142108,-0.1136874 L 90.147453,1.7473043 C 90.128457,1.5576428 90.09055,1.4246755 90.033766,1.3488733 89.995913,1.2540505 89.901286,1.1594261 89.749554,1.0646615 89.18076,0.7423501 88.422236,0.48634249 87.474272,0.29677092 86.545252,0.10718083 85.616444,0.01255908 84.687451,0.01255908 Z m 21.714082,0 c -1.61156,0 -3.1948,0.35062142 -4.74948,1.05212879 -1.53573,0.7015075 -2.796872,1.7538479 -3.782697,3.1569686 -0.985905,1.3840444 -1.478447,3.0524595 -1.478447,5.0053244 0,1.6684413 0.369539,3.2133243 1.108961,4.6354413 0.758392,1.403015 1.820204,2.521606 3.185283,3.355933 1.38404,0.815277 2.95747,1.223153 4.72063,1.223153 1.78221,0 3.4316,-0.417348 4.94844,-1.251595 1.53573,-0.834221 2.75904,-1.97173 3.66893,-3.412553 0.91005,-1.440929 1.36476,-3.02415 1.36476,-4.7494757 0,-1.5546985 -0.36954,-3.0238848 -1.10896,-4.4079028 -0.72045,-1.3840444 -1.76335,-2.4931903 -3.1284,-3.3273581 -1.3651,-0.85319112 -2.94795,-1.27948241 -4.74894,-1.27948241 z M 3.6646545,0.32504394 c -0.037978,0 -0.056842,0.0567709 -0.056842,0.17052975 0,0.11375881 0.018864,0.17104567 0.056842,0.17104567 0.7394217,0 1.2797999,0.0567709 1.6210817,0.17052975 0.3602256,0.0948043 0.5972893,0.27508379 0.7110587,0.54053699 0.1327478,0.2654266 0.198951,0.6822724 0.198951,1.2510665 V 15.79637 c 0,0.568794 -0.066203,0.995615 -0.198951,1.280012 -0.1137403,0.265453 -0.3508066,0.445235 -0.7110587,0.540007 -0.3412818,0.09477 -0.8816335,0.142109 -1.6210817,0.142109 -0.037978,0 -0.056842,0.05677 -0.056842,0.17053 0,0.113759 0.018864,0.171045 0.056842,0.171045 H 16.746813 c 0.170723,0 0.284264,-0.02847 0.34107,-0.08526 0.05679,-0.07578 0.08526,-0.189839 0.08526,-0.341573 0,-0.966934 0.08525,-2.199083 0.255796,-3.696976 0,-0.05679 -0.05677,-0.08527 -0.17053,-0.08527 -0.09477,-0.01881 -0.142108,5.7e-5 -0.142108,0.05684 -0.341282,2.40789 -1.450401,3.612046 -3.327358,3.612046 h -3.640092 c -0.7204776,0 -1.2513839,-0.04734 -1.5926391,-0.142109 C 8.23393,17.32297 8.0063382,17.152136 7.873572,16.90568 7.7598132,16.640227 7.7030422,16.232853 7.7030422,15.683029 V 2.6572267 c 0,-0.5687941 0.056771,-0.9856399 0.1705298,-1.2510665 C 8.0063012,1.1217367 8.243349,0.93197988 8.5846307,0.83720732 8.9448564,0.7234485 9.4946801,0.66667757 10.234128,0.66667757 c 0.03798,0 0.05684,-0.0572895 0.05684,-0.17104568 0,-0.11375617 -0.01886,-0.17052974 -0.05684,-0.17052974 l -1.3363404,0.0284212 c -0.7963064,0.0379778 -1.450745,0.0573609 -1.9626544,0.0573609 -0.4550247,0 -1.0805712,-0.019381 -1.8768776,-0.0573609 z m 18.3293085,0 c -0.03798,0 -0.05684,0.0567709 -0.05684,0.17052975 0,0.11375881 0.01886,0.17104567 0.05684,0.17104567 0.739422,3e-8 1.2798,0.0567709 1.621082,0.17052975 0.360226,0.0948043 0.597289,0.27508379 0.711059,0.54053699 0.132747,0.2654266 0.198951,0.6822724 0.198951,1.2510665 V 15.79637 c 0,0.568794 -0.0662,0.995615 -0.198951,1.280012 -0.113759,0.265453 -0.350833,0.445235 -0.711059,0.540007 -0.341282,0.09477 -0.881634,0.142109 -1.621082,0.142109 -0.03798,0 -0.05684,0.05729 -0.05684,0.171046 0,0.113758 0.01886,0.170529 0.05684,0.170529 h 11.7455 c 0.170731,0 0.284265,-0.02847 0.34107,-0.08526 0.07578,-0.07578 0.113688,-0.189839 0.113688,-0.341573 0,-1.270301 0.08525,-2.502424 0.255796,-3.696976 0,-0.05679 -0.05677,-0.08527 -0.17053,-0.08527 -0.113759,-0.01882 -0.170533,5e-5 -0.170533,0.05684 l 5.3e-4,-5.29e-4 c -0.151668,1.080703 -0.502808,1.953262 -1.052632,2.616855 -0.530853,0.663566 -1.175317,0.99527 -1.933709,0.99527 H 28.50679 c -0.739421,0 -1.2798,-0.04734 -1.621081,-0.142108 -0.322259,-0.09481 -0.549877,-0.265639 -0.682643,-0.512095 -0.113759,-0.265453 -0.17053,-0.672827 -0.17053,-1.222651 V 9.1130581 h 3.668402 c 0.910076,0 1.54557,0.1703154 1.905796,0.5115918 0.360226,0.3412765 0.540008,0.9384121 0.540008,1.7916031 0,0.03798 0.05677,0.05736 0.17053,0.05736 0.113758,0 0.171045,-0.01938 0.171045,-0.05736 l -0.02894,-1.33634 c -0.019,-0.2654534 -0.02842,-0.6733299 -0.02842,-1.2231536 l 0.02842,-2.2463371 c 0,-0.037978 -0.05677,-0.057361 -0.17053,-0.057361 -0.113758,0 -0.170529,0.01938 -0.170529,0.057361 0,0.7204778 -0.170832,1.2319374 -0.512121,1.5352784 -0.341282,0.284397 -0.947885,0.4268469 -1.82002,0.4268469 H 26.032319 V 2.799412 c 0,-0.5687941 0.05677,-0.9861691 0.17053,-1.2515957 0.132711,-0.2654796 0.369777,-0.4452352 0.711059,-0.5400078 0.341281,-0.0947699 0.872188,-0.14210856 1.592639,-0.14210856 h 1.962125 c 0.834221,0 1.507074,0.28437056 2.018984,0.85316466 0.511909,0.5687676 0.767917,1.336764 0.767917,2.3036981 0,0.056789 0.04785,0.084748 0.142624,0.084748 0.113759,0 0.17053,-0.027958 0.17053,-0.084748 l -0.05736,-3.44165667 c 0,-0.17054827 -0.08525,-0.25579595 -0.255793,-0.25579595 z m 112.748117,0 c -0.038,0 -0.0568,0.0572895 -0.0568,0.17104568 0,0.11375617 0.0188,0.17052974 0.0568,0.17052974 0.79631,0 1.34613,0.19870223 1.6495,0.59686604 0.30337,0.3981664 0.45526,1.080968 0.45526,2.0479021 V 15.767814 L 125.61304,1.8040752 c -0.24647,-0.3033409 -0.47407,-0.6255729 -0.68264,-0.96685465 -0.11377,-0.20863456 -0.21787,-0.341123 -0.31263,-0.39790186 -0.0758,-0.0757784 -0.17989,-0.11368738 -0.31263,-0.11368738 -0.11375,0 -0.27513,0.009432 -0.48367,0.0284212 -0.20856,0.0189897 -0.474,0.0284212 -0.79634,0.0284212 -0.37919,0 -0.67304,-0.009432 -0.88158,-0.0284212 l -1.02368,-0.0284212 c -0.0568,-3e-8 -0.0853,0.0567709 -0.0853,0.17052974 0,0.11375882 0.0285,0.17052975 0.0853,0.17052975 0.7015,0 1.3838,0.28437058 2.04739,0.8531647 V 15.142021 c 0,0.985905 -0.15139,1.668706 -0.45476,2.047902 -0.30336,0.379197 -0.86263,0.568953 -1.67791,0.568953 -0.038,0 -0.0574,0.05677 -0.0574,0.17053 0,0.113759 0.0194,0.17053 0.0574,0.17053 0.49297,0 0.86248,-0.0094 1.10896,-0.02842 l 1.3937,-0.02842 1.36476,0.02842 c 0.24647,0.01899 0.59761,0.02842 1.05263,0.02842 0.0568,0 0.0853,-0.05677 0.0853,-0.17053 0,-0.113759 -0.0285,-0.17053 -0.0853,-0.17053 -0.7963,0 -1.3556,-0.189749 -1.67791,-0.568953 -0.32231,-0.398166 -0.48368,-1.080968 -0.48368,-2.047902 V 2.1170125 l 0.48368,0.5400078 12.85435,15.8128887 c 0.038,0.03797 0.1047,0.04741 0.19947,0.02842 0.0948,-0.01881 0.14211,-0.04729 0.14211,-0.08527 V 3.3118955 c 0,-0.9669341 0.16085,-1.6497621 0.48318,-2.0479021 0.34128,-0.39816646 0.91949,-0.59736874 1.73474,-0.59736874 0.057,0 0.0858,-0.0567709 0.0858,-0.17052975 0,-0.11375882 -0.0288,-0.17052975 -0.0858,-0.17052975 l -1.10896,0.0279052 c -0.60671,0.0379778 -1.07139,0.0573609 -1.3937,0.0573609 -0.34128,0 -0.79596,-0.019381 -1.36476,-0.0573609 z m -95.158838,5.1593e-4 c -0.03798,0 -0.05684,0.0567709 -0.05684,0.17052975 0,0.11375881 0.01887,0.17104568 0.05684,0.17104568 0.682563,0 1.270751,0.15137944 1.76369,0.4547601 0.492965,0.303341 0.985507,0.8248017 1.478446,1.5642234 l 4.579087,6.910565 -4.294134,5.8869052 c -0.54985,0.739422 -1.128037,1.308692 -1.734745,1.706858 -0.606709,0.379196 -1.232758,0.568424 -1.87738,0.568424 -0.0568,0 -0.08475,0.05677 -0.08475,0.17053 0,0.113759 0.02796,0.171045 0.08475,0.171045 0.473995,0 0.815647,-0.0094 1.024215,-0.02842 l 1.165793,-0.02894 1.905293,0.02894 c 0.284397,0.01899 0.711218,0.02842 1.280012,0.02842 0.05679,0 0.08527,-0.05729 0.08527,-0.171045 0,-0.113759 -0.02847,-0.17053 -0.08527,-0.17053 -1.156532,0 -1.734746,-0.31276 -1.734746,-0.938439 0,-0.341282 0.189252,-0.787019 0.568424,-1.336843 l 3.95309,-5.5170223 4.408432,6.6832903 c 0.170548,0.246417 0.255796,0.445633 0.255796,0.597369 0,0.189646 -0.123527,0.322126 -0.369989,0.397902 -0.246469,0.07578 -0.653856,0.113687 -1.222651,0.113687 -0.03798,0 -0.05736,0.05677 -0.05736,0.17053 0,0.113759 0.01939,0.17053 0.05736,0.17053 0.587739,0 1.051918,-0.0094 1.393173,-0.02842 l 2.133176,-0.02842 1.507392,0.02842 c 0.284397,0.01899 0.672853,0.02842 1.165792,0.02842 0.03798,0 0.05684,-0.05677 0.05684,-0.17053 0,-0.113759 -0.01886,-0.17053 -0.05684,-0.17053 -0.834221,0 -1.516519,-0.141928 -2.047399,-0.426317 -0.51191,-0.303368 -1.014453,-0.834274 -1.507392,-1.59264 L 48.655452,8.6581101 52.637116,3.2265473 c 1.251331,-1.7063823 2.521844,-2.56002318 3.81101,-2.56002318 0.05679,2e-8 0.08475,-0.0567709 0.08475,-0.17052975 0,-0.11375882 -0.02796,-0.17052975 -0.08475,-0.17052975 l -1.024215,0.0284212 c -0.455025,0.0379778 -0.843481,0.0568424 -1.165793,0.0568424 -0.54985,0 -1.184842,-0.0188643 -1.905293,-0.0568424 l -1.280012,-0.0284212 c -0.05696,-3e-8 -0.08526,0.0567709 -0.08526,0.17052975 0,0.11375881 0.0283,0.17052975 0.08526,0.17052975 1.099648,0 1.649498,0.32273468 1.649498,0.96735738 0,0.3791696 -0.227605,0.9006303 -0.682643,1.5642234 L 48.428151,8.2886241 44.105443,1.8042975 C 43.934895,1.5388973 43.849647,1.3396686 43.849647,1.2069288 c 0,-0.1896616 0.123011,-0.32212618 0.369486,-0.3979019 0.246488,-0.0947699 0.654359,-0.14210856 1.223153,-0.14210856 0.05679,0 0.08475,-0.0572895 0.08475,-0.17104568 -3e-6,-0.11375882 -0.02796,-0.17052975 -0.08475,-0.17052975 l -1.478949,0.0284212 c -0.910049,0.0379778 -1.668574,0.0568424 -2.275282,0.0568424 l -1.023687,-0.0284212 c -0.492939,-0.0379778 -0.853535,-0.0568424 -1.081047,-0.0568424 z m 22.310973,0 c -0.05679,0 -0.08526,0.0567709 -0.08526,0.17052975 0,0.11375881 0.02847,0.17052974 0.08526,0.17052974 0.739421,0 1.2798,0.0572895 1.621081,0.17104568 0.3602,0.0948043 0.606735,0.27458116 0.739475,0.54000776 0.132748,0.2654267 0.198951,0.6828016 0.198951,1.2515957 V 15.796886 c 0,0.568794 -0.0662,0.995085 -0.198951,1.279482 -0.132729,0.265453 -0.379249,0.445765 -0.739475,0.540537 -0.341281,0.09477 -0.881633,0.142109 -1.621081,0.142109 -0.05679,0 -0.08526,0.05677 -0.08526,0.17053 0,0.113758 0.02847,0.170529 0.08526,0.170529 0.587764,0 1.051917,-0.0094 1.393172,-0.02842 l 1.905796,-0.02842 1.990541,0.02842 c 0.322312,0.01899 0.76805,0.02842 1.336844,0.02842 0.03798,0 0.05685,-0.05677 0.05685,-0.170529 0,-0.113759 -0.01887,-0.17053 -0.05685,-0.17053 -0.758392,0 -1.308216,-0.04734 -1.649498,-0.142109 -0.341229,-0.0948 -0.578319,-0.27511 -0.711058,-0.540537 -0.113759,-0.265453 -0.17053,-0.691744 -0.17053,-1.279482 V 2.6861532 c 0,-0.5687941 0.05677,-0.9861426 0.17053,-1.2515957 0.132713,-0.284397 0.369777,-0.4830966 0.711058,-0.596866 0.360226,-0.11375882 0.91005,-0.17104568 1.649498,-0.17104568 0.03798,0 0.05685,-0.0567709 0.05685,-0.17052975 0,-0.11375881 -0.01887,-0.17052974 -0.05685,-0.17052974 l -1.336844,0.0284212 c -0.796306,0.0379778 -1.459687,0.0568424 -1.990541,0.0568424 -0.473995,0 -1.109489,-0.0188643 -1.905796,-0.0568424 z M 105.20861,0.6381876 c 1.66844,0 3.12813,0.3889855 4.37959,1.1663216 1.2703,0.7773625 2.24694,1.8675643 2.92943,3.2704733 0.70151,1.3840709 1.05213,2.9667356 1.05213,4.7489465 0,1.687412 -0.31276,3.138183 -0.93844,4.351547 -0.62568,1.213417 -1.47879,2.13278 -2.5595,2.758511 -1.08067,0.625679 -2.29388,0.938439 -3.64009,0.938439 -1.59258,0 -3.01462,-0.426318 -4.26582,-1.279482 -1.25133,-0.853191 -2.228002,-2.010147 -2.92943,-3.469967 -0.682563,-1.478843 -1.023686,-3.099555 -1.023686,-4.8627158 0,-2.351005 0.616074,-4.2092033 1.848436,-5.5741715 1.23239,-1.3651005 2.94821,-2.0479021 5.1474,-2.0479021 z"
         style="white-space:pre;fill:#171717;stroke-width:0.586582"
         id="path2" />
    </g>
    <g
       id="g8"
       transform="matrix(0.42126567,0,0,0.42126567,-0.03583075,0.10973694)"
       style="stroke-width:2.37377">
      <path
         id="tri_yellow"
         d="m 34.539,0.033073 c -23.026,-0.022049 -11.513,-0.011024 0,0 z m -9.9115,11.398 -24.542,28.223 h 16.259 l 7.3246,-10.08 7.0714,-9.7307 z"
         style="fill:#e4e485;stroke-width:0.239441;stroke-linecap:round;stroke-linejoin:round;paint-order:stroke fill markers" />
      <path
         d="m 20.07,0.033577 6.5867,9.063 5.29e-4,-5.291e-4 0.8692,1.1963001 6.9407,9.5514 14.396,-19.8100001 h -28.792 z"
         style="fill:#d64d4d;stroke-width:0.119719;stroke-linecap:round;stroke-linejoin:round;paint-order:stroke fill markers"
         id="path3" />
      <path
         id="tri_red"
         d="m 0.085055,0.033577 17.39,19.811 7.2884,-8.2253 -8.4191,-11.585 z"
         style="fill:#d64d4d;stroke-width:0.119719;stroke-linecap:round;stroke-linejoin:round;paint-order:stroke fill markers" />
      <path
         id="tri_gray"
         d="M 34.467,19.844 20.071,39.655 h 28.792 z"
         style="fill:#171717;stroke-width:0.119719;stroke-linecap:round;stroke-linejoin:round;paint-order:stroke fill markers" />
      <path
         id="tri_orange"
         d="m 24.709,11.544 -7.2342,8.2998 h 13.265 z"
         style="fill:#d64d4d;fill-opacity:0.57143;stroke-width:0.0510219;stroke-linecap:round;stroke-linejoin:round;paint-order:stroke fill markers" />
    </g>
  </g>
</svg>
